# xmcd CD database file
#
# Track frame offsets:
#	150
#	14372
#	26999
#	40526
#	70053
#	82941
#	94072
#	106764
#	117832
#
# Disc length: 1769 seconds
#
# Revision: 0
# Processed by: cddbd v1.5.2PL0 Copyright (c) Steve Scherf et al.
# Submitted via: CdAid (MTCDDB.DLL V2003.12.21)
#
DISCID=6206e709
DTITLE=The Dells - Like It Is, Like It Was
DYEAR=1970
DGENRE=Soul
TTITLE0=I'm Not Afraid Of Tomorrow
TTITLE1=Oh What A Day
TTITLE2=Come Out, Come Out
TTITLE3=Open Up My Heart
TTITLE4=Darling Dear
TTITLE5=Since I Fell For You
TTITLE6=Nadine
TTITLE7=Long, Lonely Nights
TTITLE8=Off Shore
EXTD=ID3G:  42 YEAR: 1970
EXTT0=
EXTT1=
EXTT2=
EXTT3=
EXTT4=
EXTT5=
EXTT6=
EXTT7=
EXTT8=
PLAYORDER=
